<?xml version="1.0" standalone="no"?>
<!DOCTYPE svg PUBLIC "-//W3C//DTD SVG 20010904//EN"
 "http://www.w3.org/TR/2001/REC-SVG-20010904/DTD/svg10.dtd">
<svg version="1.0" xmlns="http://www.w3.org/2000/svg"
 width="640.000000pt" height="480.000000pt" viewBox="0 0 640.000000 480.000000"
 preserveAspectRatio="xMidYMid meet">
<metadata>
Created by potrace 1.11, written by Peter Selinger 2001-2013
</metadata>
<g transform="translate(0.000000,480.000000) scale(0.100000,-0.100000)"
fill="#000000" stroke="none">
<path d="M4130 3469 c-425 -28 -947 -101 -1399 -197 -92 -19 -126 -23 -129
-14 -6 18 -94 15 -165 -6 -34 -11 -100 -29 -147 -40 -47 -12 -114 -29 -150
-38 -36 -9 -74 -21 -85 -25 -11 -5 -51 -17 -90 -28 -70 -19 -312 -96 -394
-125 -55 -20 -95 -20 -115 -1 -8 8 -20 15 -26 15 -16 0 -40 26 -40 44 0 9 -11
23 -25 32 -14 9 -25 23 -25 30 0 8 -10 14 -25 14 -23 0 -25 -4 -25 -43 0 -53
-13 -67 -62 -67 -27 0 -38 -4 -38 -15 0 -11 -12 -15 -44 -15 -40 0 -44 -2 -49
-29 -5 -23 -12 -30 -34 -33 -25 -3 -28 -7 -31 -45 -2 -25 -8 -43 -15 -43 -7 0
-17 -8 -24 -19 -6 -10 -25 -21 -42 -24 -24 -5 -31 -12 -31 -31 0 -41 -76 -54
-82 -13 -3 20 -8 22 -73 23 -112 2 -145 -5 -145 -27 0 -10 -5 -19 -11 -19 -6
0 -9 -12 -7 -27 3 -26 7 -28 50 -31 42 -3 48 -6 48 -25 0 -15 -10 -26 -30 -35
-45 -20 -100 -137 -100 -211 1 -122 23 -220 61 -272 19 -25 3 -69 -25 -69 -30
0 -48 -56 -39 -128 4 -34 2 -52 -5 -52 -6 0 -12 -19 -14 -42 -3 -39 -6 -43
-30 -46 -22 -3 -28 -9 -28 -27 0 -20 7 -25 36 -31 l36 -7 -6 -51 c-3 -28 -8
-94 -12 -146 -7 -114 9 -153 74 -185 45 -22 53 -47 27 -81 -8 -10 -15 -29 -15
-41 0 -19 5 -23 34 -23 29 0 34 4 39 28 8 39 47 53 127 44 l65 -7 3 -66 c2
-44 -1 -71 -10 -81 -22 -23 -38 -57 -38 -77 0 -15 9 -22 36 -27 33 -6 40 -3
64 25 15 17 35 31 44 31 9 0 16 7 16 16 0 8 18 32 40 51 22 20 40 45 40 55 0
35 36 58 92 58 77 0 96 8 103 41 6 25 11 29 41 29 24 0 34 -5 34 -15 0 -12 16
-15 85 -15 l85 0 0 -46 0 -47 42 6 c24 3 44 11 46 16 5 15 85 14 100 -1 7 -7
12 -19 12 -28 0 -9 16 -31 35 -50 19 -19 35 -42 35 -52 0 -11 7 -18 18 -18 10
0 23 -5 29 -11 6 -6 23 -9 39 -7 24 2 30 8 32 33 2 24 -6 38 -43 75 -27 27
-45 53 -45 67 0 22 4 23 70 23 63 0 70 -2 70 -20 0 -28 44 -27 64 2 13 18 29
22 113 29 54 4 106 8 116 9 9 0 17 7 17 15 0 12 18 15 104 15 62 0 106 4 108
10 2 6 33 13 71 17 l67 6 0 -32 c0 -17 5 -31 10 -31 6 0 10 -9 10 -20 0 -18 7
-20 55 -20 54 0 55 0 55 -30 0 -48 35 -39 104 26 l59 56 73 -7 74 -7 0 28 0
27 107 -6 c58 -4 135 -7 170 -7 61 0 63 -1 63 -25 0 -22 4 -25 39 -25 22 0 41
-4 43 -9 5 -14 98 -26 98 -12 0 6 9 11 20 11 14 0 20 7 20 21 0 21 3 21 83 15
45 -3 101 -9 125 -12 34 -5 42 -3 42 10 0 32 209 18 217 -14 3 -13 19 -19 56
-24 76 -9 87 -8 87 9 0 13 16 14 113 9 61 -4 115 -11 118 -16 4 -6 36 -7 78
-2 l71 7 0 -27 c0 -22 4 -26 30 -26 23 0 30 -4 30 -20 0 -23 12 -26 118 -34
58 -5 74 -3 78 9 5 12 41 14 235 12 148 -1 232 2 237 8 4 6 35 28 69 50 61 39
93 82 93 125 0 11 5 20 10 20 6 0 10 11 10 25 0 16 6 25 15 25 8 0 15 9 15 20
0 13 7 20 18 20 47 0 82 73 49 103 -22 21 -56 37 -76 37 -12 0 -21 9 -25 25
-4 14 -13 25 -21 25 -8 0 -15 4 -15 9 0 4 -71 7 -157 5 -173 -4 -233 1 -233
20 0 15 -71 26 -167 26 -70 0 -93 6 -93 26 0 10 -13 14 -45 14 -35 0 -45 -4
-45 -17 0 -15 -27 -16 -337 -10 -186 4 -488 7 -670 7 l-333 0 0 22 c0 28 226
258 252 258 11 0 18 7 18 18 0 20 29 52 47 52 6 0 13 5 15 11 2 7 47 13 111
16 l107 6 0 -48 0 -47 198 8 c108 5 222 9 252 9 l55 0 1 -60 c1 -80 10 -105
40 -105 21 0 24 5 24 35 0 31 3 35 25 35 18 0 25 -5 25 -20 0 -16 7 -20 31
-20 l32 0 -7 64 -6 64 77 7 c99 8 103 10 103 39 0 15 7 25 19 29 25 6 30 57
23 296 l-5 200 34 5 c57 9 279 19 373 18 l88 -2 -5 27 c-3 16 -9 40 -12 55 -5
20 -1 36 16 59 27 38 34 100 24 203 -7 75 -7 76 -34 76 -24 0 -29 6 -40 43
-14 48 -47 138 -67 182 -7 17 -24 56 -38 88 -14 31 -33 60 -43 64 -10 4 -23
12 -30 19 -35 34 -646 55 -983 33z"/>
</g>
</svg>
