<?xml version="1.0" standalone="no"?>
<!DOCTYPE svg PUBLIC "-//W3C//DTD SVG 20010904//EN"
 "http://www.w3.org/TR/2001/REC-SVG-20010904/DTD/svg10.dtd">
<svg version="1.0" xmlns="http://www.w3.org/2000/svg"
 width="608.000000pt" height="450.000000pt" viewBox="0 0 608.000000 450.000000"
 preserveAspectRatio="xMidYMid meet">
<metadata>
Created by potrace 1.11, written by Peter Selinger 2001-2013
</metadata>
<g transform="translate(0.000000,450.000000) scale(0.100000,-0.100000)"
fill="#000000" stroke="none">
<path d="M2920 4489 c0 -21 -29 -39 -62 -39 -22 0 -43 -9 -63 -28 -16 -15 -47
-38 -67 -52 -21 -14 -38 -28 -38 -31 0 -4 -18 -31 -40 -60 -21 -29 -42 -66
-45 -83 -4 -17 -13 -45 -21 -63 -19 -42 -31 -217 -15 -227 6 -4 11 -27 11 -51
0 -24 5 -47 10 -50 6 -3 10 -17 10 -30 0 -18 -7 -25 -31 -30 -17 -4 -54 -19
-81 -33 -46 -24 -53 -25 -94 -14 -69 19 -388 16 -454 -4 -52 -15 -92 -36 -118
-61 -8 -8 -39 -13 -76 -13 -35 0 -78 -3 -95 -6 -30 -6 -31 -8 -31 -60 l0 -54
-32 0 c-38 0 -170 -32 -220 -53 -19 -8 -46 -25 -59 -38 -32 -30 -119 -159
-119 -176 0 -7 -4 -13 -8 -13 -20 0 -36 -111 -36 -247 0 -141 0 -143 -22 -143
-12 0 -24 6 -27 14 -3 7 -21 16 -40 20 -23 4 -37 13 -40 26 -7 25 -46 40 -107
40 -30 0 -50 5 -53 13 -3 9 -41 12 -144 12 -120 0 -144 -3 -160 -17 -11 -10
-34 -18 -52 -18 -23 0 -59 -17 -117 -55 -46 -30 -97 -61 -113 -70 -20 -10 -31
-24 -33 -42 -2 -22 -10 -29 -36 -34 -43 -9 -42 -7 -49 -69 -5 -46 -9 -53 -39
-68 -33 -15 -34 -18 -34 -73 0 -31 -7 -70 -15 -85 -8 -16 -15 -46 -15 -67 0
-37 -17 -67 -39 -67 -7 0 -11 -24 -11 -60 0 -47 3 -60 15 -60 10 0 15 -10 15
-32 0 -31 46 -139 63 -146 4 -2 7 -12 7 -22 0 -10 15 -35 34 -56 l34 -38 124
-4 c105 -4 134 -1 196 17 39 12 72 26 72 31 0 6 4 10 9 10 6 0 36 16 68 35 32
19 70 35 84 35 l26 0 6 -117 c8 -159 20 -199 83 -266 41 -44 61 -57 95 -64 38
-7 44 -12 47 -35 3 -22 -3 -30 -35 -47 -31 -15 -141 -91 -188 -129 -5 -4 -57
-43 -115 -87 -97 -73 -142 -110 -176 -143 -27 -26 -127 -72 -156 -72 -46 0
-105 48 -112 91 -10 65 -77 100 -160 85 l-36 -7 0 -139 c0 -113 3 -140 14
-140 8 0 28 -16 45 -35 17 -19 34 -35 38 -35 5 0 25 -12 46 -26 27 -18 65 -30
125 -40 144 -23 176 -20 317 34 17 7 38 17 47 22 10 6 26 10 36 10 18 0 19 -9
18 -118 -1 -131 2 -139 80 -220 l42 -42 108 0 c60 0 139 7 177 15 37 8 113 19
170 25 56 6 122 16 147 21 25 6 86 15 135 20 127 13 253 28 298 35 36 6 37 5
37 -23 0 -34 -22 -48 -85 -57 -22 -3 -69 -10 -105 -15 -36 -6 -113 -11 -171
-11 -119 0 -119 0 -119 -74 0 -53 22 -75 111 -113 62 -27 69 -28 254 -28 188
0 191 1 240 28 28 15 64 27 81 27 29 0 32 -3 38 -40 4 -26 18 -52 39 -74 19
-19 38 -49 43 -68 9 -29 15 -34 59 -44 37 -7 51 -15 54 -30 5 -29 19 -34 99
-34 65 0 72 -2 72 -20 0 -19 7 -20 255 -20 244 0 255 1 255 19 0 13 15 26 45
41 25 12 45 25 45 30 0 4 11 11 24 14 17 4 26 15 31 36 4 16 13 30 21 30 7 0
16 11 20 25 4 18 13 25 29 25 24 0 35 17 35 55 0 20 6 24 38 27 30 2 38 7 40
25 2 13 8 23 13 23 20 0 79 55 79 73 0 11 8 31 19 45 10 15 22 51 26 80 6 45
10 52 30 52 26 0 40 -14 48 -51 4 -14 16 -36 27 -49 11 -13 20 -27 20 -31 0
-13 82 -119 91 -119 5 0 9 -7 9 -16 0 -9 14 -33 30 -53 17 -20 34 -40 39 -46
4 -5 19 -19 33 -30 13 -11 34 -34 46 -52 13 -17 31 -35 42 -38 10 -3 22 -15
25 -26 4 -10 13 -19 20 -19 17 0 65 -43 65 -59 0 -8 43 -11 145 -11 134 0 145
1 145 19 0 16 11 19 91 24 117 9 122 14 115 120 -3 49 -10 85 -19 95 -8 9 -18
42 -22 72 -4 30 -10 57 -14 60 -3 3 -16 25 -27 50 -12 25 -32 68 -45 95 -28
60 -113 191 -146 224 -12 13 -23 27 -23 31 0 3 -25 37 -55 75 -64 81 -69 107
-22 126 41 16 64 40 93 98 20 38 24 62 24 132 l0 86 -38 39 c-48 49 -54 52
-124 88 -50 24 -58 32 -58 57 l0 28 103 4 c56 3 156 12 222 20 66 9 158 20
205 26 101 11 143 21 151 34 4 5 27 13 50 18 54 10 106 22 182 43 32 9 84 16
117 16 32 0 62 5 65 10 4 6 62 10 142 10 108 0 140 -3 153 -15 9 -8 40 -21 69
-28 42 -9 57 -19 72 -44 32 -51 23 -76 -33 -90 -73 -18 -272 -33 -433 -33
-153 0 -309 -13 -385 -31 -71 -18 -183 -76 -232 -122 -74 -70 -128 -208 -128
-331 0 -42 9 -93 25 -145 24 -75 31 -86 102 -156 42 -42 95 -86 117 -97 23
-11 43 -24 46 -28 8 -10 88 -40 109 -40 10 0 21 -6 24 -14 8 -19 90 -28 282
-30 147 -1 165 1 225 24 36 13 76 30 90 37 14 7 33 13 42 13 19 0 74 28 97 50
31 30 71 89 71 104 0 9 4 16 9 16 5 0 12 29 16 64 9 81 -15 206 -45 236 -14
14 -20 31 -18 48 3 26 5 27 78 30 71 2 132 20 145 42 3 6 24 10 46 10 55 0
107 24 119 54 5 14 18 31 30 38 11 7 20 18 20 24 0 6 7 17 16 25 8 7 27 35 41
62 13 27 33 52 44 54 18 5 19 16 19 169 0 128 -3 164 -13 164 -7 0 -22 19 -32
42 -33 76 -226 248 -277 248 -6 0 -19 6 -27 13 -9 8 -77 29 -151 46 -123 30
-153 34 -342 38 -222 6 -288 0 -461 -43 -54 -13 -114 -24 -133 -24 -33 0 -35
2 -32 28 3 25 7 28 62 34 40 5 64 14 76 28 13 15 30 20 69 20 46 0 56 4 88 35
20 20 46 35 60 35 12 0 23 5 23 10 0 6 7 10 15 10 31 0 67 25 99 69 19 27 50
54 74 66 38 18 42 23 42 58 0 35 1 37 34 37 28 0 38 6 56 35 13 20 30 35 41
35 14 0 19 7 19 25 0 14 8 29 20 35 11 6 20 17 20 25 0 8 9 20 20 27 11 7 20
19 20 26 0 7 11 18 25 24 14 6 25 19 25 28 0 24 37 166 50 189 12 24 14 271 1
271 -5 0 -11 18 -15 40 -3 22 -11 40 -16 40 -6 0 -10 7 -10 15 0 8 -4 15 -10
15 -5 0 -10 6 -10 13 0 8 -9 25 -20 38 -11 13 -23 29 -28 34 -5 6 -17 24 -28
40 -29 44 -87 98 -131 120 -21 11 -39 23 -41 28 -2 4 -8 7 -13 7 -6 0 -30 9
-55 20 -29 14 -44 27 -44 39 0 12 -11 23 -31 30 -36 12 -179 15 -179 4 0 -16
-55 -33 -104 -33 -52 0 -122 -20 -211 -59 -75 -33 -135 -65 -135 -71 0 -3 -24
-23 -52 -44 -56 -40 -100 -94 -133 -161 -11 -22 -23 -42 -26 -45 -12 -10 -20
-112 -13 -170 6 -58 8 -60 48 -79 22 -10 59 -25 81 -31 22 -7 50 -17 62 -23
27 -12 203 -3 231 12 12 6 46 11 76 11 31 0 56 5 56 10 0 6 6 10 14 10 9 0 16
16 20 48 3 26 8 66 12 90 l6 42 67 0 c69 0 82 -6 137 -58 36 -34 33 -94 -8
-172 -29 -55 -74 -104 -148 -164 -45 -37 -204 -136 -217 -136 -7 0 -13 -4 -13
-9 0 -5 -19 -14 -42 -20 -24 -5 -95 -29 -158 -51 -174 -63 -175 -63 -325 -64
-194 0 -350 36 -362 84 -3 10 -16 23 -29 30 -19 11 -24 21 -24 52 0 21 5 38
10 38 6 0 10 9 10 21 0 12 6 35 14 52 37 85 55 137 66 190 6 31 15 57 20 57 4
0 15 15 23 33 12 26 17 98 22 369 6 332 6 338 -14 355 -14 12 -21 30 -21 55 0
21 -4 38 -9 38 -5 0 -12 12 -16 27 -9 37 -23 53 -46 53 -23 0 -39 29 -39 70 0
31 -15 50 -78 97 -16 12 -32 36 -35 52 -4 21 -19 38 -46 55 -27 18 -41 34 -43
52 -2 22 -12 30 -45 43 -24 8 -43 19 -43 24 0 22 -45 47 -85 47 -44 0 -65 13
-65 42 0 17 -14 18 -195 18 -132 0 -195 -3 -195 -11z m-1600 -1868 c5 -11 10
-32 10 -48 0 -24 7 -31 47 -47 57 -24 83 -45 83 -67 0 -18 57 -59 81 -59 7 0
28 -14 45 -31 18 -17 65 -48 106 -69 124 -63 162 -84 183 -105 12 -11 38 -29
58 -39 27 -14 37 -26 37 -43 0 -12 -5 -23 -10 -23 -11 0 -86 -32 -130 -55 -27
-14 -134 -51 -249 -85 -65 -20 -89 -22 -181 -17 -138 8 -140 9 -140 62 0 63
18 106 61 147 37 35 39 40 39 98 0 60 -10 91 -37 118 -9 9 -13 41 -13 98 0 66
-3 84 -14 84 -19 0 -24 9 -32 58 -6 40 -5 42 19 42 16 0 31 -8 37 -19z m2550
-1221 c0 -69 -1 -70 -26 -70 -31 0 -63 35 -64 69 0 32 37 71 67 71 22 0 23 -3
23 -70z m-2640 -274 c0 -19 -10 -29 -42 -44 -72 -34 -218 -82 -249 -82 -27 0
-30 3 -27 27 2 20 11 30 33 38 16 5 42 24 58 42 29 33 43 37 175 41 49 2 52 1
52 -22z"/>
</g>
</svg>
