<?xml version="1.0" standalone="no"?>
<!DOCTYPE svg PUBLIC "-//W3C//DTD SVG 20010904//EN"
 "http://www.w3.org/TR/2001/REC-SVG-20010904/DTD/svg10.dtd">
<svg version="1.0" xmlns="http://www.w3.org/2000/svg"
 width="640.000000pt" height="480.000000pt" viewBox="0 0 640.000000 480.000000"
 preserveAspectRatio="xMidYMid meet">
<metadata>
Created by potrace 1.11, written by Peter Selinger 2001-2013
</metadata>
<g transform="translate(0.000000,480.000000) scale(0.100000,-0.100000)"
fill="#000000" stroke="none">
<path d="M2930 4355 c-147 -15 -267 -39 -317 -62 -27 -13 -33 -21 -33 -48 0
-18 -7 -38 -15 -45 -12 -10 -15 -37 -15 -127 0 -107 -2 -116 -22 -133 -20 -16
-24 -32 -32 -137 -11 -145 -12 -757 -1 -1065 4 -124 5 -242 1 -262 l-7 -36
-59 0 c-71 0 -90 -6 -90 -31 0 -10 -7 -22 -16 -27 -13 -7 -18 -34 -25 -123 -4
-63 -8 -115 -8 -116 -1 -1 -20 -15 -43 -31 -27 -18 -61 -31 -91 -34 -93 -11
-100 -33 -117 -363 -6 -121 -17 -267 -25 -325 -16 -118 -18 -253 -6 -412 10
-121 27 -158 87 -180 19 -6 41 -22 49 -35 13 -20 24 -23 78 -23 34 0 80 -5
102 -10 22 -5 138 -12 258 -16 187 -6 220 -9 224 -23 3 -9 16 -39 29 -67 39
-85 61 -88 569 -76 437 11 439 11 470 90 l20 52 58 0 57 0 0 45 c0 43 1 45 30
45 17 0 30 5 30 10 0 6 6 10 14 10 8 0 21 6 28 13 13 13 36 21 101 34 l27 5 0
-59 0 -60 83 -14 c58 -10 143 -13 297 -10 247 4 270 9 270 65 0 28 4 35 25 40
14 4 29 14 32 24 3 9 16 28 29 42 35 39 61 134 73 267 26 290 2 1077 -37 1200
-27 85 -62 143 -121 195 -76 69 -141 90 -292 96 -196 7 -248 -18 -323 -153
-26 -44 -41 -90 -51 -146 -18 -100 -35 -129 -75 -129 -17 0 -30 1 -31 3 -14
57 -23 299 -28 817 -9 735 -19 902 -58 927 -22 15 -23 20 -23 155 l0 140 -28
28 c-33 32 -68 43 -208 66 -138 23 -658 28 -844 9z"/>
</g>
</svg>
