<?xml version="1.0" standalone="no"?>
<!DOCTYPE svg PUBLIC "-//W3C//DTD SVG 20010904//EN"
 "http://www.w3.org/TR/2001/REC-SVG-20010904/DTD/svg10.dtd">
<svg version="1.0" xmlns="http://www.w3.org/2000/svg"
 width="720.000000pt" height="720.000000pt" viewBox="0 0 720.000000 720.000000"
 preserveAspectRatio="xMidYMid meet">
<metadata>
Created by potrace 1.11, written by Peter Selinger 2001-2013
</metadata>
<g transform="translate(0.000000,720.000000) scale(0.125436,-1.333333)"
fill="#000000" stroke="none">
<path fill="#000000" stroke="none" d="M0 397 l0 -144 838 -6 c2085 -17 2334
-20 2337 -31 2 -6 6 -23 9 -39 6 -25 10 -27 54 -27 26 0 180 -13 342 -30 334
-34 642 -64 838 -82 96 -8 132 -15 132 -25 0 -11 110 -13 595 -13 l595 0 0
270 0 270 -2870 0 -2870 0 0 -143z"/>
</g>
</svg>
