<?xml version="1.0" standalone="no"?>
<!DOCTYPE svg PUBLIC "-//W3C//DTD SVG 20010904//EN"
 "http://www.w3.org/TR/2001/REC-SVG-20010904/DTD/svg10.dtd">
<svg version="1.0" xmlns="http://www.w3.org/2000/svg"
 width="640.000000pt" height="480.000000pt" viewBox="0 0 640.000000 480.000000"
 preserveAspectRatio="xMidYMid meet">
<metadata>
Created by potrace 1.11, written by Peter Selinger 2001-2013
</metadata>
<g transform="translate(0.000000,480.000000) scale(0.100000,-0.100000)"
fill="#000000" stroke="none">
<path d="M0 2400 l0 -2400 3200 0 3200 0 0 2400 0 2400 -3200 0 -3200 0 0
-2400z m4985 1070 c66 -7 127 -18 135 -24 8 -7 23 -16 33 -19 10 -4 29 -33 43
-64 14 -32 31 -71 38 -88 20 -44 53 -134 67 -182 10 -34 17 -43 38 -45 22 -3
27 -10 34 -48 4 -25 7 -83 5 -130 -3 -71 -7 -91 -27 -118 -20 -28 -22 -37 -12
-58 6 -14 11 -36 11 -49 0 -39 -58 -59 -99 -33 -14 9 -35 9 -89 0 -39 -7 -113
-12 -164 -12 -51 0 -104 -3 -117 -7 l-24 -6 5 -201 c3 -111 3 -221 -1 -245 -6
-42 -8 -44 -55 -59 -27 -9 -59 -26 -72 -39 -15 -15 -35 -23 -57 -23 l-34 0 1
-62 1 -63 -33 -3 c-27 -3 -35 1 -39 17 -8 33 -31 25 -35 -11 -2 -27 -8 -34
-29 -36 -40 -5 -61 35 -57 106 l3 57 -150 -5 c-82 -3 -195 -5 -250 -5 l-100 0
-3 44 -3 44 -95 -6 c-82 -5 -100 -9 -130 -32 -18 -14 -34 -33 -34 -41 0 -8 -8
-17 -17 -21 -23 -7 -253 -234 -253 -249 0 -8 189 -13 657 -17 576 -6 658 -5
666 8 12 22 88 20 108 -4 14 -15 36 -19 129 -23 95 -5 116 -9 127 -24 13 -17
30 -19 196 -19 158 0 187 -2 210 -18 15 -9 27 -24 27 -32 0 -9 9 -15 22 -15
11 0 36 -11 55 -26 28 -22 33 -31 33 -68 0 -42 1 -44 36 -50 42 -8 49 -24 38
-79 -10 -47 -31 -57 -71 -36 -18 10 -26 10 -35 1 -7 -7 -30 -12 -53 -12 -37
-1 -41 -4 -60 -43 -15 -32 -38 -54 -95 -92 l-75 -50 -222 2 c-192 2 -222 0
-227 -14 -5 -12 -18 -14 -75 -8 -46 5 -71 3 -75 -4 -10 -15 -62 -14 -87 1 -29
18 -49 -12 -49 -74 0 -43 -3 -50 -27 -59 -15 -5 -45 -9 -67 -7 l-41 3 -3 54
c-2 30 2 59 7 64 18 18 12 44 -11 51 -13 3 -63 6 -113 6 -130 1 -169 10 -173
38 -2 13 -9 25 -15 26 -54 15 -165 29 -254 31 -60 2 -143 7 -185 10 -67 7 -78
5 -78 -8 0 -15 -51 -47 -75 -47 -7 0 -15 -7 -19 -15 -3 -10 -19 -15 -42 -15
-30 0 -37 4 -47 30 -6 17 -20 30 -32 32 -12 2 -21 12 -23 26 -3 21 -8 22 -98
22 l-94 0 0 -30 c0 -16 -6 -33 -14 -37 -7 -4 -18 -18 -25 -30 -15 -29 -61 -31
-68 -3 -4 15 -15 20 -57 22 -44 3 -51 6 -54 25 -3 18 -11 22 -45 25 -32 2 -44
8 -51 24 -9 21 -14 22 -198 19 -128 -1 -192 -5 -200 -13 -8 -8 -48 -12 -106
-12 -73 0 -97 -4 -106 -15 -7 -10 -37 -17 -91 -21 -136 -9 -141 -11 -160 -50
-14 -31 -20 -35 -48 -32 -28 3 -32 7 -35 36 -3 32 -4 32 -58 32 -68 0 -69 -11
-9 -70 41 -40 46 -49 43 -85 -3 -37 -5 -40 -36 -43 -41 -4 -102 23 -102 44 0
9 -9 18 -20 21 -11 3 -27 22 -36 42 -9 20 -19 43 -23 51 -11 21 -65 24 -95 5
-14 -9 -39 -15 -58 -13 -31 3 -33 5 -36 45 l-3 42 -80 -2 c-67 -2 -83 1 -93
15 -16 22 -46 24 -46 3 0 -34 -38 -55 -100 -55 -64 0 -100 -21 -100 -58 0 -10
-17 -35 -37 -55 -51 -48 -73 -75 -73 -86 0 -14 -59 -41 -87 -41 -66 0 -81 44
-37 109 23 35 25 46 19 94 l-7 55 -56 4 c-54 5 -87 -4 -104 -27 -16 -22 -8
-130 12 -168 11 -20 20 -50 20 -66 0 -20 6 -30 20 -34 16 -4 20 -14 20 -45 0
-21 3 -60 6 -86 6 -42 5 -48 -15 -53 -14 -4 -21 -13 -21 -30 0 -16 -7 -27 -19
-30 -16 -4 -21 -15 -23 -52 -2 -36 -8 -48 -25 -56 -12 -5 -24 -17 -26 -27 -4
-14 -16 -18 -56 -18 -39 0 -51 -4 -51 -15 0 -8 -18 -22 -39 -31 -22 -8 -42
-21 -44 -29 -3 -7 -22 -16 -42 -19 l-36 -7 6 -54 c6 -48 5 -56 -11 -62 -11 -4
-24 -13 -29 -21 -7 -8 -25 -12 -50 -10 -34 3 -40 7 -47 34 -5 19 -16 34 -28
37 -11 3 -23 13 -26 24 -3 10 -10 27 -16 39 -5 12 -8 32 -6 45 3 23 6 24 71
22 69 -2 86 9 52 37 -8 7 -15 28 -15 47 0 26 5 36 20 40 27 7 25 26 -2 38 -36
16 -35 59 1 95 16 17 34 30 40 30 6 0 11 18 11 40 0 34 4 42 26 50 14 6 39 10
55 10 27 0 29 3 29 36 0 27 5 37 20 41 11 3 20 14 20 25 0 11 9 22 20 25 14 4
20 14 20 32 0 33 -10 48 -35 52 -29 6 -33 65 -6 90 15 14 21 32 21 65 0 24 5
53 12 63 9 15 8 26 -7 57 -15 32 -17 54 -12 138 4 56 9 119 13 141 6 39 5 41
-27 50 -29 8 -34 15 -34 40 0 23 5 30 25 35 20 5 26 13 28 40 2 19 8 40 13 47
6 6 7 33 3 60 -6 48 14 123 33 123 5 0 14 9 21 21 11 17 10 27 -8 65 -24 49
-39 143 -40 244 0 49 6 79 26 120 27 59 69 110 91 110 7 0 13 7 13 14 0 11
-14 16 -48 18 -41 3 -47 6 -50 26 -2 13 4 39 12 57 19 40 39 45 161 42 75 -2
80 -3 83 -24 5 -37 56 -27 63 12 2 11 14 24 27 30 17 7 22 18 22 45 0 38 14
60 38 60 8 0 23 11 34 25 11 14 28 25 39 25 10 0 19 6 19 13 0 6 11 22 24 35
19 18 35 22 83 22 65 0 79 12 85 75 4 44 38 45 83 2 19 -19 35 -41 35 -49 0
-9 18 -23 40 -32 22 -9 40 -20 40 -26 0 -14 31 -12 81 6 82 29 324 106 394
125 39 11 79 23 90 28 11 4 49 16 85 25 36 9 103 26 150 38 47 11 113 29 147
40 67 20 163 24 179 8 7 -7 48 -2 125 14 424 91 944 164 1389 196 163 11 711
5 865 -10z"/>
<path d="M4140 3450 c-445 -32 -965 -105 -1389 -196 -126 -26 -157 -29 -166
-14 -10 16 -70 12 -138 -8 -34 -11 -100 -29 -147 -40 -47 -12 -114 -29 -150
-38 -36 -9 -74 -21 -85 -25 -11 -5 -51 -17 -90 -28 -70 -19 -312 -96 -394
-125 -52 -19 -117 -21 -128 -3 -4 6 -25 20 -45 29 -21 10 -38 25 -38 34 0 9
-13 29 -30 44 l-30 28 0 -29 c0 -16 -7 -41 -16 -54 -14 -22 -24 -25 -75 -25
-60 0 -87 -14 -102 -53 -3 -9 -15 -17 -26 -17 -12 0 -28 -11 -37 -24 -8 -14
-25 -26 -37 -28 -18 -2 -23 -11 -25 -46 -3 -35 -8 -45 -28 -52 -14 -6 -24 -18
-24 -29 0 -27 -32 -43 -78 -39 -29 2 -38 8 -40 24 -3 20 -8 21 -80 18 -42 -1
-82 -3 -88 -3 -7 -1 -14 -9 -18 -18 -3 -10 -9 -23 -12 -30 -4 -8 10 -13 43
-15 47 -3 48 -3 51 -40 3 -31 -1 -38 -25 -50 -32 -15 -65 -61 -89 -125 -15
-39 -16 -59 -8 -147 7 -68 17 -117 32 -147 29 -59 28 -90 -4 -124 -35 -38 -42
-61 -37 -126 3 -36 1 -59 -6 -63 -6 -4 -11 -22 -11 -40 0 -35 -12 -51 -45 -58
-16 -4 -12 -7 15 -15 35 -9 35 -10 34 -64 0 -30 -4 -95 -9 -145 -6 -76 -5 -97
9 -124 18 -37 21 -95 6 -105 -5 -3 -10 -28 -10 -56 0 -36 -5 -54 -20 -69 -25
-25 -25 -40 0 -40 26 0 40 -29 40 -85 0 -38 -4 -48 -20 -52 -11 -3 -20 -14
-20 -25 0 -11 -8 -22 -19 -25 -14 -4 -21 -15 -23 -41 -2 -24 -8 -38 -18 -39
-90 -11 -90 -11 -90 -54 0 -27 -5 -42 -16 -46 -16 -6 -64 -50 -64 -59 0 -2 11
-9 25 -14 20 -8 25 -16 25 -46 0 -27 -5 -37 -20 -41 -24 -6 -26 -26 -4 -43 10
-9 14 -26 12 -49 l-3 -36 -67 2 c-63 1 -83 -7 -58 -22 6 -3 10 -15 10 -26 0
-12 10 -23 25 -29 17 -6 27 -20 31 -40 7 -32 37 -42 48 -15 3 8 11 15 18 15
10 0 13 17 13 57 0 56 0 57 35 67 19 6 42 18 52 28 10 10 28 20 42 24 13 3 26
14 29 25 4 16 14 19 56 19 39 0 51 4 51 15 0 9 11 20 25 25 22 8 25 16 25 56
0 37 4 47 20 51 13 4 20 14 20 30 0 17 7 27 21 30 12 4 18 11 15 20 -3 8 -6
36 -6 63 0 39 -4 49 -20 53 -15 4 -20 14 -20 36 0 17 -9 48 -20 68 -15 29 -20
57 -20 118 0 44 4 86 9 93 20 32 63 43 138 36 40 -4 76 -10 78 -14 3 -4 8 -39
11 -79 6 -65 5 -74 -20 -111 -31 -47 -31 -46 -10 -54 19 -7 74 14 74 28 0 10
17 30 73 85 20 20 37 44 37 54 0 10 11 29 25 42 20 21 34 25 82 25 67 0 78 5
92 43 9 23 16 27 50 27 27 0 43 -5 50 -17 7 -14 25 -17 93 -18 l83 0 3 -42 c3
-46 15 -53 48 -28 28 21 117 20 137 -3 10 -10 17 -23 17 -28 0 -22 26 -63 43
-68 10 -2 21 -13 23 -23 5 -18 46 -43 71 -43 27 0 12 37 -32 80 -40 39 -45 50
-43 80 l3 35 80 0 80 0 3 -33 c3 -30 22 -47 22 -19 0 6 9 23 19 36 16 22 29
25 127 32 79 7 110 13 117 24 6 12 29 15 105 15 64 0 102 4 110 12 9 9 73 13
223 15 l210 2 9 -24 c7 -19 17 -24 52 -27 36 -2 44 -7 46 -26 3 -19 9 -22 53
-22 41 0 51 -4 57 -21 8 -20 8 -20 20 5 6 14 16 26 21 26 5 0 11 15 13 33 l3
32 120 0 c117 0 120 -1 123 -22 2 -15 10 -23 23 -23 13 0 24 -10 30 -30 12
-32 33 -40 43 -15 3 8 11 15 19 15 25 0 66 25 71 44 4 17 13 18 103 12 54 -3
146 -8 205 -10 104 -3 228 -21 258 -35 8 -5 16 -17 18 -28 4 -24 50 -33 178
-33 114 0 134 -9 134 -59 0 -22 -4 -43 -10 -46 -5 -3 -10 -22 -10 -41 0 -36
10 -41 58 -28 19 5 22 13 22 53 0 61 21 91 64 91 17 0 37 -5 44 -12 9 -9 17
-9 36 2 17 8 45 11 85 7 45 -4 61 -2 65 9 4 11 45 13 228 12 l223 -3 73 48
c59 38 77 56 93 92 19 43 21 45 64 45 24 0 47 5 50 10 9 14 68 13 83 -2 9 -9
12 -8 12 4 0 9 3 23 6 31 4 11 -5 17 -33 24 -37 8 -38 10 -41 56 -3 38 -8 50
-32 67 -15 11 -38 20 -49 20 -13 0 -25 9 -30 24 -5 13 -18 27 -28 31 -10 4
-100 8 -201 9 -167 1 -185 3 -197 20 -12 15 -32 19 -126 24 -91 4 -115 8 -130
23 -23 23 -48 24 -63 4 -10 -14 -89 -14 -691 -8 l-680 8 -3 34 c-3 32 5 43
120 158 67 67 128 123 134 123 6 0 14 8 16 18 3 11 22 32 42 47 36 27 42 29
154 29 l117 1 3 -42 c4 -51 -24 -48 276 -32 245 12 241 13 233 -71 -3 -38 0
-62 8 -74 12 -16 14 -15 17 16 3 30 6 33 41 36 32 3 39 0 44 -17 11 -43 23
-19 20 41 l-2 63 44 6 c26 3 50 14 60 26 9 11 37 26 64 34 56 16 52 -9 47 290
-2 166 0 208 11 215 8 5 75 12 149 16 74 4 165 10 202 14 46 4 72 3 82 -5 19
-16 49 -3 40 18 -18 41 -16 80 6 111 27 38 35 96 25 184 -6 60 -8 65 -32 68
-27 3 -30 8 -88 184 -7 23 -18 50 -24 60 -6 11 -22 45 -35 77 -14 31 -30 57
-37 57 -7 0 -20 6 -28 14 -10 9 -62 19 -136 26 -156 15 -664 21 -825 10z"/>
</g>
</svg>
