<?xml version="1.0" standalone="no"?>
<!DOCTYPE svg PUBLIC "-//W3C//DTD SVG 20010904//EN"
 "http://www.w3.org/TR/2001/REC-SVG-20010904/DTD/svg10.dtd">
<svg version="1.0" xmlns="http://www.w3.org/2000/svg"
 width="640.000000pt" height="480.000000pt" viewBox="0 0 640.000000 480.000000"
 preserveAspectRatio="xMidYMid meet">
<metadata>
Created by potrace 1.11, written by Peter Selinger 2001-2013
</metadata>
<g transform="translate(0.000000,480.000000) scale(0.100000,-0.100000)"
fill="#000000" stroke="none">
<path d="M0 2400 l0 -2400 3200 0 3200 0 0 2400 0 2400 -3200 0 -3200 0 0
-2400z m4985 1070 c66 -7 127 -18 135 -24 8 -7 23 -16 33 -19 10 -4 29 -33 43
-64 14 -32 31 -71 38 -88 20 -44 53 -134 67 -182 10 -34 17 -43 38 -45 22 -3
27 -10 34 -48 4 -25 7 -83 5 -130 -2 -70 -7 -91 -27 -118 -20 -29 -22 -37 -11
-62 6 -15 10 -39 8 -52 -3 -22 -7 -23 -88 -24 -113 -2 -327 -14 -369 -20 l-34
-5 6 -197 c6 -235 2 -293 -24 -299 -12 -4 -19 -14 -19 -29 0 -29 -4 -31 -101
-39 l-76 -6 1 -62 1 -62 -33 -3 c-27 -3 -35 1 -39 17 -8 33 -31 25 -35 -11 -2
-27 -8 -34 -29 -36 -40 -5 -61 35 -57 106 l3 57 -150 -5 c-82 -3 -195 -5 -250
-5 l-100 0 -3 44 -3 44 -95 -6 c-82 -5 -100 -9 -130 -32 -18 -14 -34 -33 -34
-41 0 -8 -8 -17 -17 -21 -23 -7 -253 -234 -253 -249 0 -8 189 -13 657 -17 576
-6 658 -5 666 8 12 22 88 20 108 -4 14 -15 36 -19 129 -23 95 -5 116 -9 127
-24 13 -17 30 -19 196 -19 158 0 187 -2 210 -18 15 -9 27 -24 27 -32 0 -9 9
-15 22 -15 11 0 36 -11 55 -26 25 -19 33 -33 33 -56 0 -36 -34 -78 -62 -78
-10 0 -18 -7 -18 -15 0 -9 -7 -18 -15 -21 -8 -4 -15 -14 -15 -24 0 -11 -4 -22
-10 -25 -5 -3 -10 -16 -10 -28 0 -40 -39 -87 -112 -135 l-73 -47 -219 2 c-184
1 -221 -1 -230 -13 -9 -12 -28 -13 -106 -7 -84 7 -96 10 -105 30 -5 13 -20 23
-35 25 -17 2 -26 10 -28 26 -3 23 -6 23 -68 17 -38 -5 -69 -3 -77 2 -6 6 -58
13 -114 16 -87 5 -102 4 -107 -10 -10 -24 -135 -10 -157 18 -13 17 -30 22
-103 26 -75 5 -88 4 -100 -12 -10 -14 -21 -16 -57 -11 -24 3 -77 9 -116 12
-63 6 -73 4 -73 -9 0 -26 -64 -50 -107 -42 -21 4 -43 11 -48 15 -6 5 -26 10
-45 12 -27 2 -36 8 -38 26 -3 20 -8 22 -71 22 -37 0 -109 3 -159 6 -90 7 -90
7 -94 -17 -3 -23 -6 -24 -78 -24 l-75 0 -55 -53 c-45 -42 -61 -52 -85 -50 -25
3 -31 8 -33 31 -3 25 -6 27 -52 27 -44 0 -50 3 -64 32 -9 17 -16 40 -16 51 0
18 -5 19 -57 13 -32 -4 -62 -11 -67 -16 -6 -6 -52 -10 -104 -10 -73 0 -97 -3
-106 -15 -8 -11 -42 -18 -119 -24 -94 -7 -110 -11 -123 -29 -20 -29 -74 -30
-81 -2 -5 17 -14 20 -64 20 -73 0 -75 -10 -14 -70 41 -40 46 -49 43 -85 -3
-37 -5 -40 -36 -43 -38 -4 -102 22 -102 42 0 6 -16 27 -35 46 -19 19 -35 41
-35 50 0 40 -60 54 -105 24 -13 -8 -38 -14 -57 -12 -31 3 -33 5 -36 45 l-3 43
-80 0 c-62 0 -81 3 -85 15 -8 20 -54 20 -54 0 0 -34 -38 -55 -100 -55 -65 0
-100 -21 -100 -59 0 -11 -15 -32 -34 -48 -18 -15 -39 -38 -45 -50 -6 -13 -18
-23 -26 -23 -7 0 -23 -13 -35 -30 -16 -22 -29 -30 -51 -30 -72 0 -88 42 -43
109 21 32 25 48 22 92 l-3 54 -55 6 c-68 8 -106 -6 -120 -44 -8 -25 -13 -28
-47 -25 -31 2 -39 7 -41 27 -2 13 4 39 14 57 10 18 16 35 14 36 -3 2 -23 13
-44 24 -65 35 -78 70 -72 194 3 58 8 123 12 145 6 39 5 41 -27 50 -29 8 -34
15 -34 40 0 23 5 30 25 35 20 5 26 13 28 40 2 19 8 40 13 47 6 6 7 33 3 60 -8
61 15 123 45 123 27 0 37 36 17 59 -29 32 -46 103 -52 216 -7 107 -6 114 20
171 29 62 71 114 93 114 7 0 13 7 13 14 0 11 -14 16 -48 18 -41 3 -47 6 -50
26 -2 13 4 39 12 57 19 40 39 45 161 42 75 -2 80 -3 83 -24 5 -34 62 -28 62 6
0 21 19 41 40 41 31 1 69 46 72 86 3 34 7 39 30 42 19 2 29 11 37 33 9 25 15
29 49 29 26 0 42 5 46 15 3 9 18 15 39 15 42 0 55 14 59 65 2 33 7 41 25 43
26 4 88 -51 94 -83 2 -11 25 -30 51 -44 46 -24 48 -25 95 -9 206 68 349 113
408 129 39 11 79 23 90 28 11 4 49 16 85 25 36 9 103 26 150 38 47 11 113 29
147 40 67 20 163 24 179 8 7 -7 48 -2 125 14 424 91 944 164 1389 196 163 11
711 5 865 -10z"/>
<path d="M4140 3450 c-445 -32 -965 -105 -1389 -196 -126 -26 -157 -29 -166
-14 -10 16 -70 12 -138 -8 -34 -11 -100 -29 -147 -40 -47 -12 -114 -29 -150
-38 -36 -9 -74 -21 -85 -25 -11 -5 -51 -17 -90 -28 -70 -19 -312 -96 -394
-125 -24 -9 -59 -16 -78 -16 -51 0 -133 48 -133 78 0 7 -13 27 -30 42 l-30 28
0 -37 c0 -46 -24 -71 -67 -71 -18 0 -33 -6 -37 -15 -3 -10 -19 -15 -43 -15
-34 0 -40 -4 -50 -30 -9 -23 -18 -30 -37 -30 -23 0 -26 -4 -26 -38 0 -31 -6
-43 -32 -63 -18 -13 -42 -26 -53 -29 -11 -3 -21 -16 -23 -28 -4 -29 -34 -44
-80 -40 -29 2 -38 8 -40 24 -3 20 -8 21 -80 18 -42 -1 -82 -3 -88 -3 -7 -1
-14 -9 -18 -18 -3 -10 -9 -23 -12 -30 -4 -8 10 -13 43 -15 48 -3 48 -3 51 -41
3 -31 -1 -38 -20 -46 -33 -12 -53 -38 -84 -105 -25 -55 -26 -65 -20 -150 7
-97 28 -177 52 -196 30 -26 11 -110 -25 -110 -26 0 -39 -43 -33 -111 3 -36 0
-59 -7 -63 -6 -4 -11 -22 -11 -40 0 -35 -12 -51 -45 -58 -16 -4 -12 -7 15 -15
35 -9 35 -10 34 -64 0 -30 -4 -95 -9 -145 -10 -114 5 -152 71 -184 38 -19 44
-26 44 -54 0 -18 -7 -41 -15 -52 -18 -24 -19 -34 -1 -34 8 0 17 11 20 24 10
41 59 58 141 50 38 -4 76 -11 83 -17 7 -6 12 -36 12 -81 0 -60 -4 -77 -26
-110 -21 -31 -24 -40 -13 -47 23 -14 34 -10 57 21 13 16 29 30 37 30 7 0 16 9
20 19 3 11 21 31 40 46 19 14 35 35 35 46 0 11 11 31 25 44 20 21 34 25 82 25
67 0 78 5 92 43 9 24 16 27 55 27 29 0 48 -5 53 -15 6 -10 31 -15 88 -17 l80
-3 3 -42 c3 -46 15 -53 48 -28 28 21 117 20 137 -3 10 -10 17 -25 17 -33 0 -8
16 -30 35 -49 19 -19 35 -39 35 -44 0 -12 46 -36 67 -36 27 0 12 37 -32 80
-40 39 -45 50 -43 80 l3 35 83 3 c77 3 84 1 89 -18 7 -26 17 -25 35 1 12 19
28 23 123 30 80 7 111 13 118 24 6 12 29 15 105 15 59 0 102 4 109 11 6 6 47
12 90 13 75 1 78 0 84 -24 16 -67 18 -69 73 -72 47 -3 51 -5 54 -30 2 -16 7
-28 10 -28 4 0 34 25 65 56 l58 57 70 -6 c64 -5 69 -4 69 14 0 11 6 22 14 25
8 3 93 2 188 -3 169 -8 173 -9 176 -30 3 -19 10 -23 37 -23 19 0 36 -4 39 -9
18 -29 101 -12 110 21 3 15 16 18 76 18 39 0 91 -5 116 -11 39 -10 46 -9 58 6
11 16 26 17 121 13 93 -4 111 -8 125 -25 22 -28 105 -41 114 -18 5 14 21 16
123 10 65 -4 125 -9 133 -13 8 -3 47 -6 85 -6 65 -1 70 -3 73 -23 3 -17 10
-23 28 -23 17 0 27 -8 34 -24 8 -21 16 -24 82 -28 53 -3 75 -1 81 9 6 10 55
12 230 11 l222 -3 72 47 c70 46 103 86 103 127 0 11 5 23 10 26 6 3 10 15 10
26 0 11 6 22 14 25 8 3 16 14 19 25 3 10 14 19 25 19 20 0 52 29 52 48 0 16
-55 52 -79 52 -13 0 -25 9 -30 24 -5 13 -18 27 -28 31 -10 4 -100 8 -201 9
-167 1 -185 3 -197 20 -12 15 -32 19 -126 24 -91 4 -115 8 -130 23 -23 23 -48
24 -63 4 -10 -14 -89 -14 -691 -8 l-680 8 -3 34 c-3 32 5 43 120 158 67 67
128 123 134 123 6 0 14 8 16 18 3 11 22 32 42 47 36 27 42 29 154 29 l117 1 3
-42 c4 -51 -24 -48 276 -32 245 12 241 13 233 -71 -3 -38 0 -62 8 -74 12 -16
14 -15 17 16 3 30 6 33 41 36 32 3 39 0 44 -17 12 -45 24 -19 17 38 -4 34 -2
61 3 64 6 4 47 9 91 13 78 7 82 8 82 31 0 16 7 27 20 30 24 6 24 8 20 284 -2
167 0 208 11 215 16 10 275 28 397 27 73 0 82 1 76 16 -18 41 -16 80 6 111 27
38 35 96 25 184 -6 60 -8 65 -32 68 -27 3 -30 8 -88 184 -7 23 -18 50 -24 60
-6 11 -22 45 -35 77 -14 31 -30 57 -37 57 -7 0 -20 6 -28 14 -10 9 -62 19
-136 26 -156 15 -664 21 -825 10z"/>
</g>
</svg>
