<?xml version="1.0" standalone="no"?>
<!DOCTYPE svg PUBLIC "-//W3C//DTD SVG 20010904//EN"
 "http://www.w3.org/TR/2001/REC-SVG-20010904/DTD/svg10.dtd">
<svg version="1.0" xmlns="http://www.w3.org/2000/svg"
 width="623.000000pt" height="419.000000pt" viewBox="0 0 623.000000 419.000000"
 preserveAspectRatio="xMidYMid meet">
<metadata>
Created by potrace 1.11, written by Peter Selinger 2001-2013
</metadata>
<g transform="translate(0.000000,419.000000) scale(0.100000,-0.100000)"
fill="#000000" stroke="none">
<path d="M1320 4173 c0 -10 -15 -25 -32 -33 -25 -12 -36 -26 -47 -62 l-15 -48
-118 0 c-98 0 -125 -3 -157 -20 -48 -24 -110 -93 -147 -165 l-29 -55 -77 0
c-68 0 -82 -3 -125 -30 -42 -26 -64 -32 -163 -41 -63 -6 -124 -15 -135 -19
-11 -5 -36 -14 -56 -21 -69 -23 -74 -32 -74 -118 0 -51 5 -84 14 -94 17 -22
110 -23 166 -2 84 30 195 13 242 -38 33 -36 53 -94 53 -155 0 -32 -5 -43 -27
-57 -16 -10 -40 -31 -55 -46 -22 -24 -35 -29 -72 -29 -47 0 -155 -20 -243 -45
l-52 -15 -7 -56 c-3 -31 -3 -92 2 -137 9 -80 9 -80 44 -93 21 -7 88 -13 166
-13 184 -1 278 -33 356 -120 57 -62 81 -123 76 -189 -5 -63 -33 -132 -54 -132
-8 0 -14 -9 -14 -20 0 -11 -26 -57 -59 -102 -133 -188 -247 -400 -341 -637
-83 -209 -274 -716 -296 -784 -10 -31 -24 -57 -31 -57 -10 0 -13 -51 -13 -255
0 -176 3 -255 11 -255 6 0 36 -22 67 -48 31 -27 75 -59 97 -72 22 -13 46 -32
53 -42 7 -10 22 -18 33 -18 41 0 109 -23 109 -36 0 -12 119 -14 750 -14 660 0
750 2 750 15 0 8 9 15 20 15 25 0 40 29 40 79 0 80 -26 105 -122 117 -29 4
-75 18 -102 32 -39 21 -68 27 -137 30 l-87 4 -16 57 c-9 32 -16 65 -16 74 0 9
-4 17 -10 17 -5 0 -10 20 -10 45 0 25 5 45 10 45 6 0 10 7 10 15 0 8 30 85 66
172 65 156 85 215 305 893 131 402 161 460 241 460 28 0 28 -1 28 -60 l0 -60
40 0 c34 0 40 -3 40 -21 0 -11 -17 -41 -39 -67 -21 -26 -43 -56 -49 -68 -18
-35 -52 -171 -52 -209 l0 -35 49 0 49 0 11 50 c16 74 36 117 84 175 50 62 86
89 156 116 79 30 161 25 289 -16 151 -48 221 -63 347 -70 123 -8 348 8 458 31
194 40 468 141 495 182 22 34 27 169 13 395 -12 201 -11 207 59 277 42 42 102
73 171 89 26 6 214 11 451 11 405 0 407 0 427 22 12 12 23 30 26 40 13 39 67
43 540 40 359 -2 455 0 475 10 46 25 55 60 58 232 4 146 5 159 23 163 18 5 19
17 19 224 0 186 -2 219 -15 219 -9 0 -20 20 -30 54 -18 60 -56 98 -112 110
-17 4 -37 14 -44 22 -15 19 -120 19 -183 0 -47 -14 -433 -8 -1891 30 -226 6
-265 5 -298 -9 -86 -37 -183 -46 -367 -37 -184 10 -209 14 -305 48 -56 20 -95
23 -598 37 -297 8 -572 15 -612 15 l-72 0 -13 44 c-7 25 -20 52 -30 61 -10 9
-57 24 -104 33 -53 11 -86 22 -86 30 0 8 -22 12 -75 12 -65 0 -75 -2 -75 -17z
m952 -1810 c21 -19 25 -82 6 -101 -7 -7 -20 -12 -31 -12 -15 0 -18 -7 -15 -47
l3 -48 58 -3 c52 -3 57 -5 57 -26 0 -22 -5 -23 -82 -29 -46 -4 -102 -7 -125
-7 -40 0 -43 2 -43 26 0 31 26 126 46 171 8 17 17 45 20 62 6 29 10 31 47 31
24 0 48 -7 59 -17z"/>
</g>
</svg>
