<?xml version="1.0" standalone="no"?>
<!DOCTYPE svg PUBLIC "-//W3C//DTD SVG 20010904//EN"
 "http://www.w3.org/TR/2001/REC-SVG-20010904/DTD/svg10.dtd">
<svg version="1.0" xmlns="http://www.w3.org/2000/svg"
 width="640.000000pt" height="480.000000pt" viewBox="0 0 640.000000 480.000000"
 preserveAspectRatio="xMidYMid meet">
<metadata>
Created by potrace 1.11, written by Peter Selinger 2001-2013
</metadata>
<g transform="translate(0.000000,480.000000) scale(0.100000,-0.100000)"
fill="#000000" stroke="none">
<path d="M0 2400 l0 -2400 3200 0 3200 0 0 2400 0 2400 -1527 0 c-899 0 -1523
-4 -1518 -9 6 -5 41 -11 79 -13 60 -4 71 -7 88 -31 16 -22 27 -27 63 -27 35 0
48 -5 67 -28 13 -15 41 -35 63 -44 31 -12 41 -22 43 -42 2 -18 16 -35 43 -52
27 -17 42 -34 46 -55 3 -16 19 -40 35 -52 65 -48 78 -66 78 -100 0 -38 16 -64
44 -69 10 -1 22 -10 27 -18 26 -49 39 -86 39 -110 0 -15 9 -35 20 -45 20 -18
21 -26 14 -264 -3 -135 -7 -287 -8 -338 -1 -79 -4 -94 -23 -115 -12 -13 -27
-48 -34 -78 -10 -50 -29 -104 -65 -187 -8 -17 -14 -38 -14 -46 0 -9 -4 -19
-10 -22 -6 -3 -10 -26 -10 -49 0 -36 6 -50 36 -82 47 -49 70 -61 163 -81 88
-20 354 -23 411 -6 19 6 87 30 150 53 63 22 132 45 153 51 68 17 293 166 364
241 37 39 87 130 96 174 10 53 -9 99 -55 133 -38 28 -49 31 -119 31 l-77 0 -6
-42 c-4 -24 -10 -72 -14 -108 -7 -62 -8 -65 -36 -68 -16 -2 -39 2 -52 8 -13 7
-35 10 -51 6 -88 -21 -113 -25 -166 -26 -31 0 -65 4 -75 9 -9 5 -44 17 -77 28
-32 10 -70 27 -84 39 -22 19 -25 29 -25 100 -1 70 3 88 31 144 17 36 48 84 69
108 39 46 188 162 208 162 7 0 32 10 56 21 75 36 153 58 207 59 33 0 65 7 88
20 63 36 191 23 202 -20 3 -13 35 -34 89 -60 47 -22 103 -57 126 -78 37 -33
148 -174 148 -187 0 -4 11 -23 25 -43 14 -20 25 -47 25 -59 0 -12 5 -25 10
-28 15 -9 13 -221 -3 -253 -7 -15 -22 -63 -32 -107 -16 -69 -25 -86 -62 -124
-24 -24 -43 -50 -43 -57 0 -7 -9 -18 -20 -24 -11 -6 -20 -20 -20 -31 0 -12 -8
-23 -20 -26 -11 -3 -29 -21 -41 -40 -18 -29 -26 -34 -53 -31 -25 2 -32 8 -34
29 -2 17 -11 29 -23 32 -11 3 -23 15 -26 26 -11 43 -82 16 -83 -30 0 -25 -44
-49 -87 -49 -52 0 -59 -7 -66 -63 -8 -60 -13 -67 -39 -67 -21 0 -47 -26 -48
-47 0 -15 46 -17 55 -3 3 6 15 10 25 10 30 0 77 33 108 76 31 42 127 98 158
92 14 -2 20 -13 22 -40 3 -34 0 -38 -43 -63 -25 -15 -59 -46 -75 -70 -17 -25
-43 -47 -62 -54 -18 -7 -41 -17 -50 -22 -10 -5 -24 -9 -31 -9 -8 0 -30 -16
-50 -35 -32 -31 -42 -35 -88 -35 -40 0 -58 -5 -75 -21 -14 -13 -41 -23 -71
-26 -27 -3 -57 -14 -69 -25 -13 -11 -47 -23 -85 -29 -35 -5 -83 -12 -107 -15
-23 -4 -45 -11 -48 -15 -3 -5 -16 -9 -30 -9 -19 0 -25 -5 -22 -17 7 -40 159
-25 443 42 224 53 275 59 493 52 177 -5 211 -8 332 -38 74 -17 142 -38 151
-46 8 -7 20 -13 26 -13 28 0 114 -61 182 -129 75 -75 131 -165 131 -211 0 -11
4 -29 10 -40 6 -11 14 -29 20 -40 16 -32 12 -61 -10 -67 -16 -4 -20 -14 -20
-53 0 -31 -5 -52 -16 -61 -8 -7 -25 -31 -36 -53 -11 -23 -39 -63 -62 -91 -24
-27 -45 -58 -49 -68 -9 -24 -66 -47 -116 -47 -22 0 -42 -4 -46 -9 -14 -24 -72
-41 -139 -41 -54 -1 -76 -5 -93 -19 -13 -11 -23 -23 -23 -27 0 -5 16 -25 36
-45 29 -29 39 -51 51 -105 14 -70 10 -168 -8 -179 -5 -4 -9 -13 -9 -22 0 -40
-123 -153 -167 -153 -10 0 -29 -6 -43 -13 -14 -7 -54 -24 -90 -37 -59 -23 -78
-25 -215 -23 -187 2 -265 10 -272 29 -3 8 -15 14 -28 14 -48 0 -184 84 -265
164 -74 73 -82 84 -105 158 -29 91 -32 166 -9 246 37 137 103 222 217 281 118
60 175 69 522 81 358 12 495 32 495 75 0 8 -14 34 -30 57 -25 34 -40 45 -83
55 -28 8 -59 20 -68 29 -13 12 -46 15 -159 15 -89 1 -146 -3 -153 -10 -6 -6
-37 -11 -69 -11 -31 0 -83 -7 -115 -16 -68 -19 -122 -32 -178 -43 -22 -5 -54
-16 -71 -25 -17 -9 -73 -21 -125 -26 -52 -6 -148 -18 -214 -26 -66 -9 -149
-18 -185 -20 -36 -2 -116 -9 -179 -15 -114 -12 -115 -12 -159 -52 -37 -35 -43
-45 -38 -69 7 -34 36 -77 52 -78 6 0 17 -7 24 -15 28 -34 40 -17 40 54 0 61 3
72 22 85 32 22 80 20 130 -7 98 -52 138 -80 162 -112 23 -29 26 -44 26 -107 0
-112 -42 -186 -127 -223 -24 -10 -43 -23 -43 -30 0 -7 24 -43 52 -80 29 -37
64 -84 77 -104 13 -20 30 -40 36 -46 20 -16 108 -155 134 -210 13 -27 36 -76
52 -108 15 -32 31 -79 35 -105 3 -26 13 -54 21 -63 8 -9 17 -48 20 -85 7 -92
-4 -102 -118 -111 -46 -3 -88 -9 -94 -13 -5 -4 -45 -13 -88 -19 -91 -15 -162
-2 -203 36 -14 13 -28 23 -32 23 -21 0 -242 239 -242 262 0 10 -4 18 -9 18 -9
0 -91 106 -91 118 0 5 -11 23 -25 42 -14 19 -25 41 -25 49 -1 17 -65 91 -79
91 -4 0 -11 -34 -14 -76 -5 -52 -13 -85 -27 -104 -11 -15 -20 -36 -20 -47 0
-18 -59 -73 -79 -73 -5 0 -11 -10 -13 -22 -2 -19 -10 -24 -40 -26 -34 -3 -38
-6 -38 -31 0 -31 -16 -51 -42 -51 -10 0 -18 -6 -18 -14 0 -8 -8 -21 -18 -28
-9 -7 -23 -26 -30 -41 -6 -15 -20 -30 -29 -34 -10 -4 -31 -17 -46 -30 -16 -13
-34 -23 -41 -23 -7 0 -21 -9 -31 -20 -10 -11 -24 -20 -32 -20 -7 0 -23 -5 -36
-12 -12 -6 -31 -15 -41 -21 -25 -12 -229 2 -280 19 -21 8 -49 14 -62 14 -13 0
-27 7 -31 15 -6 10 -30 15 -83 17 -68 3 -76 5 -87 28 -9 18 -25 28 -59 35 -41
9 -49 14 -59 44 -6 18 -26 51 -45 73 -25 30 -34 53 -38 89 -5 53 -10 56 -50
35 -130 -70 -135 -71 -322 -71 -169 0 -177 1 -239 28 -86 36 -111 61 -111 107
0 20 5 41 12 48 8 8 50 12 117 13 59 0 131 5 161 9 30 5 79 13 108 16 36 5 60
14 75 30 12 13 27 24 33 24 6 0 29 18 50 40 21 22 51 42 66 45 19 5 28 13 28
26 0 27 -25 24 -79 -10 -25 -15 -68 -34 -96 -40 -27 -7 -66 -16 -86 -21 -20
-6 -103 -15 -185 -20 -82 -6 -168 -17 -192 -25 -23 -8 -61 -15 -83 -15 -46 0
-150 -15 -256 -36 -40 -8 -115 -14 -168 -14 -95 0 -96 0 -128 33 -18 17 -46
50 -62 71 -30 39 -30 41 -29 154 l2 114 33 29 c19 16 52 34 74 41 22 6 45 15
50 18 6 4 24 10 40 14 49 12 256 86 313 112 42 20 52 29 52 49 0 33 -28 39
-144 30 -90 -6 -95 -8 -127 -41 -18 -19 -39 -34 -46 -34 -7 0 -30 -16 -52 -35
-21 -19 -43 -35 -49 -35 -15 0 -72 -34 -72 -42 0 -4 -16 -14 -35 -22 -20 -9
-46 -28 -59 -43 -24 -29 -46 -43 -101 -64 -138 -55 -160 -57 -296 -35 -94 15
-163 52 -231 123 -33 34 -39 47 -48 113 -14 101 -6 148 28 161 39 15 100 4
128 -22 13 -13 27 -39 30 -58 5 -27 17 -44 50 -69 24 -17 53 -32 66 -32 38 0
153 64 220 122 99 87 388 298 446 326 29 15 52 33 52 42 -1 21 -38 46 -80 54
-25 4 -52 23 -92 64 -53 53 -58 62 -72 134 -9 42 -16 120 -16 173 0 77 -3 95
-15 95 -18 0 -167 -78 -205 -106 -39 -30 -139 -47 -252 -42 l-111 5 -34 39
c-18 21 -33 46 -33 55 0 8 -4 19 -9 25 -5 5 -21 31 -35 57 -33 64 -47 205 -22
226 10 8 16 29 16 55 0 22 7 54 15 70 8 15 15 53 15 82 0 52 2 56 35 75 28 17
35 27 35 52 0 48 21 81 55 87 24 4 31 11 33 33 2 18 13 32 33 42 16 9 67 40
113 70 58 38 94 55 117 55 18 0 41 8 52 17 28 26 236 33 272 9 13 -9 44 -16
69 -16 58 0 97 -15 103 -40 3 -12 17 -22 38 -26 31 -5 75 -49 75 -74 0 -6 16
-24 35 -41 19 -17 35 -37 35 -45 0 -7 13 -28 29 -46 16 -19 32 -50 36 -70 4
-20 16 -44 26 -54 15 -14 19 -31 19 -89 0 -60 4 -76 25 -105 19 -26 25 -46 25
-85 0 -46 -4 -55 -39 -89 -26 -26 -43 -53 -51 -85 -6 -25 -16 -54 -21 -63 -31
-59 5 -77 161 -85 102 -5 125 -3 191 17 115 34 221 71 249 85 14 7 42 20 63
29 85 36 107 49 107 61 0 7 -21 25 -47 40 -27 15 -57 36 -68 46 -23 20 -97 62
-200 113 -38 19 -83 48 -99 65 -17 17 -36 31 -44 31 -25 0 -82 41 -82 59 0 21
-26 46 -57 55 -38 12 -73 46 -73 73 0 17 -17 41 -55 78 -30 29 -55 58 -55 65
0 7 -13 27 -29 45 -63 72 -64 311 -2 436 47 97 118 186 165 209 53 25 190 60
239 60 l38 0 -7 50 c-6 48 -6 50 22 60 17 7 52 9 84 5 52 -6 59 -4 107 29 86
59 136 68 345 62 101 -2 201 -7 223 -11 32 -5 49 -1 86 18 25 14 60 28 78 32
40 9 47 25 27 66 -9 18 -16 49 -16 70 0 21 -5 41 -11 45 -14 9 -5 159 13 201
6 15 16 46 23 68 14 51 96 159 144 189 20 13 45 33 55 45 13 14 31 21 56 21
21 0 43 6 49 14 6 8 27 17 46 20 19 3 51 9 70 12 19 3 38 10 41 15 3 5 -684 9
-1645 9 l-1651 0 0 -2400z"/>
<path d="M3316 4762 c-3 -6 -22 -13 -41 -16 -19 -3 -51 -9 -70 -12 -19 -3 -40
-12 -46 -20 -6 -8 -28 -14 -48 -14 -27 0 -44 -7 -62 -26 -13 -14 -36 -32 -51
-40 -36 -19 -120 -131 -133 -179 -7 -22 -16 -51 -22 -65 -17 -41 -27 -156 -14
-164 6 -4 11 -24 11 -45 0 -21 7 -52 15 -67 18 -35 19 -88 3 -102 -7 -5 -24
-13 -38 -16 -14 -4 -48 -19 -77 -33 -45 -21 -60 -24 -110 -18 -32 3 -131 8
-221 11 -187 6 -241 -4 -326 -62 -46 -32 -57 -36 -111 -33 -95 3 -91 6 -90
-53 l0 -53 -55 -6 c-73 -8 -176 -35 -225 -59 -46 -23 -109 -103 -156 -199 -60
-121 -58 -327 3 -396 15 -18 28 -38 28 -45 0 -7 23 -34 51 -60 35 -32 53 -58
58 -81 5 -27 15 -38 50 -56 54 -28 81 -51 81 -72 0 -17 48 -51 72 -51 8 0 27
-14 44 -31 16 -17 61 -46 99 -65 103 -51 173 -91 205 -116 15 -13 48 -35 74
-51 44 -25 47 -30 44 -63 -3 -38 -13 -47 -103 -85 -27 -11 -61 -27 -75 -34
-27 -14 -134 -51 -249 -85 -67 -20 -89 -22 -211 -17 -171 6 -200 18 -200 77 0
22 4 48 9 58 5 9 15 38 21 63 8 32 25 59 51 85 47 46 51 84 14 134 -21 29 -25
45 -25 105 0 58 -4 75 -19 89 -10 10 -22 34 -26 54 -4 20 -20 51 -36 70 -16
18 -29 39 -29 47 0 8 -16 27 -35 42 -19 15 -35 35 -35 43 -1 26 -35 57 -69 65
-21 4 -35 14 -39 27 -6 25 -41 38 -98 38 -25 0 -56 7 -69 16 -35 23 -205 16
-233 -9 -10 -9 -33 -17 -51 -17 -22 0 -62 -19 -133 -65 -56 -36 -105 -65 -110
-65 -4 0 -8 -10 -8 -23 0 -29 -18 -47 -47 -47 -26 0 -43 -32 -43 -81 0 -23 -7
-34 -35 -50 -33 -20 -35 -24 -35 -74 0 -29 -7 -66 -15 -81 -8 -16 -15 -48 -15
-70 0 -25 -6 -47 -16 -55 -31 -26 7 -192 57 -243 5 -6 9 -17 9 -25 0 -9 13
-31 28 -50 28 -32 31 -33 120 -39 92 -5 195 13 232 42 18 13 45 29 129 73 46
25 73 33 100 31 l36 -3 6 -125 c9 -174 20 -213 82 -277 36 -37 62 -55 87 -60
58 -10 90 -40 90 -85 0 -36 -3 -39 -58 -67 -63 -32 -349 -241 -450 -329 -81
-70 -183 -122 -240 -122 -61 0 -137 57 -146 110 -8 53 -53 86 -101 74 -30 -7
-36 -39 -24 -123 11 -75 36 -109 129 -168 45 -29 72 -38 153 -51 105 -16 128
-13 234 34 17 8 36 14 42 14 5 0 31 20 57 45 25 25 57 48 70 51 13 3 24 10 24
14 0 10 66 50 82 50 6 0 28 16 49 35 22 19 44 35 51 35 7 0 28 16 48 35 l36
35 120 6 c151 9 166 3 162 -64 -3 -46 -4 -47 -58 -74 -56 -27 -260 -101 -315
-114 -16 -4 -34 -10 -40 -14 -5 -3 -28 -12 -50 -18 -22 -7 -53 -23 -68 -37
-27 -24 -28 -29 -30 -119 -1 -102 5 -116 83 -195 30 -29 36 -31 106 -31 41 0
107 6 147 14 106 21 210 36 256 36 22 0 60 7 83 15 24 8 110 19 192 25 82 5
165 14 185 20 20 5 59 14 86 21 28 6 71 25 97 41 35 22 56 28 85 26 38 -3 38
-3 38 -47 0 -40 -3 -45 -31 -55 -17 -6 -48 -28 -69 -49 -21 -20 -42 -37 -46
-37 -4 0 -20 -11 -35 -25 -17 -15 -39 -25 -58 -25 -17 0 -49 -5 -71 -11 -22
-6 -105 -14 -185 -18 -129 -5 -145 -8 -148 -24 -6 -28 23 -53 96 -84 64 -26
75 -28 222 -28 167 0 157 -2 305 72 17 8 44 13 60 11 28 -3 30 -6 36 -55 5
-40 15 -62 42 -94 20 -23 39 -54 42 -69 5 -24 13 -29 53 -37 37 -6 50 -14 60
-36 13 -26 16 -27 88 -27 57 0 76 -4 80 -15 4 -8 16 -15 29 -15 12 0 40 -6 61
-14 57 -19 218 -29 246 -15 47 24 58 29 71 29 8 0 22 9 32 20 10 11 24 20 31
20 7 0 26 11 42 25 17 14 35 25 41 25 7 0 19 16 27 35 8 19 19 35 24 35 6 0
15 11 20 24 5 14 19 26 32 28 18 2 24 11 28 38 5 32 8 35 43 38 29 3 37 7 37
23 0 11 10 24 23 29 34 14 67 46 67 65 0 9 9 29 20 45 13 18 22 54 27 106 l8
79 33 3 c28 3 39 -3 72 -40 22 -24 39 -50 40 -59 0 -8 11 -30 25 -49 14 -19
25 -37 25 -42 0 -11 70 -102 86 -111 8 -4 14 -16 14 -26 0 -15 25 -44 157
-183 43 -44 70 -68 78 -68 4 0 17 -10 30 -22 36 -35 98 -48 169 -37 33 6 70
14 81 19 11 5 56 11 99 14 100 8 110 15 101 81 -3 27 -12 57 -19 65 -8 8 -17
36 -20 62 -4 26 -20 73 -35 105 -16 32 -39 81 -52 108 -25 54 -116 196 -132
206 -5 4 -21 25 -36 47 -14 22 -50 70 -78 107 -40 51 -53 76 -53 102 0 30 5
36 47 56 57 27 71 41 101 98 30 60 30 139 0 179 -12 17 -51 47 -87 68 -111 64
-118 67 -145 54 -23 -10 -25 -18 -28 -84 l-3 -73 -36 -3 c-23 -2 -40 2 -49 12
-7 9 -18 16 -24 16 -23 0 -59 63 -64 109 -4 45 -2 48 45 92 l49 46 115 12 c63
6 143 13 179 15 36 2 119 11 185 20 66 8 162 20 214 26 52 5 108 17 125 26 17
9 49 20 71 25 56 11 110 24 178 43 32 9 84 16 115 16 32 0 63 5 69 11 8 8 65
12 173 11 133 0 165 -3 179 -16 10 -9 41 -22 70 -29 46 -10 57 -19 87 -60 28
-38 34 -56 32 -85 -3 -31 -9 -40 -38 -54 -55 -26 -173 -39 -465 -48 -348 -12
-413 -22 -526 -83 -109 -60 -167 -135 -203 -269 -22 -77 -20 -114 9 -206 23
-72 31 -84 100 -152 77 -77 213 -160 260 -160 13 0 28 -6 32 -14 10 -18 83
-26 249 -28 133 -2 189 10 284 59 14 7 33 13 43 13 44 0 157 103 157 143 0 9
4 18 9 21 16 11 20 82 7 145 -11 49 -22 71 -50 100 -75 77 -33 141 92 141 65
0 123 17 137 41 4 5 24 9 46 9 45 0 109 24 109 40 0 7 20 35 44 63 24 29 53
70 64 93 11 22 28 46 36 53 11 9 16 30 16 63 0 41 3 51 19 55 17 4 18 8 9 27
-25 47 -28 57 -28 76 0 45 -55 135 -128 206 -67 67 -148 124 -175 124 -6 0
-18 6 -26 13 -9 8 -76 28 -150 46 -116 28 -159 33 -312 38 -195 7 -256 0 -454
-48 -271 -65 -477 -88 -504 -55 -20 23 -10 80 14 84 11 2 29 7 40 12 11 5 52
14 90 20 39 6 83 13 100 16 16 2 38 13 50 23 11 10 41 21 68 24 30 3 57 13 71
26 17 16 35 21 74 21 47 0 57 4 88 35 19 19 41 35 49 35 9 0 23 4 33 9 9 5 31
14 48 21 17 6 45 30 61 54 17 24 49 54 72 67 23 12 41 28 41 35 0 23 -101 -39
-127 -78 -26 -39 -82 -78 -112 -78 -9 0 -22 -5 -28 -11 -5 -5 -30 -9 -54 -7
-41 3 -44 5 -47 35 -4 41 23 83 53 83 23 0 35 29 35 86 0 29 26 44 77 44 39 1
73 18 73 39 0 6 7 23 16 36 14 21 24 25 65 25 43 0 51 -3 58 -24 5 -13 19 -26
30 -29 15 -3 21 -13 21 -31 0 -35 11 -33 38 9 12 19 29 35 37 35 8 0 15 9 15
20 0 11 9 25 20 32 11 7 20 18 20 24 0 6 19 31 43 55 36 38 46 57 62 124 10
44 25 92 32 107 15 32 18 204 3 213 -5 3 -10 16 -10 28 0 12 -11 39 -25 59
-14 20 -25 39 -25 43 0 13 -111 154 -144 183 -21 18 -76 51 -123 73 -55 27
-87 49 -91 61 -10 41 -99 51 -157 18 -23 -13 -55 -20 -88 -20 -54 -1 -132 -23
-207 -59 -24 -11 -49 -21 -56 -21 -21 0 -171 -118 -206 -162 -61 -76 -91 -150
-91 -220 1 -73 10 -84 99 -112 32 -10 69 -23 81 -29 25 -11 145 -2 174 13 23
13 106 13 114 0 3 -5 12 -10 20 -10 9 0 15 19 18 63 3 34 9 82 14 107 l8 45
101 3 100 3 47 -36 c54 -41 73 -91 62 -163 -8 -56 -56 -145 -103 -195 -77 -80
-299 -229 -369 -246 -21 -6 -90 -29 -153 -51 -63 -23 -131 -47 -150 -53 -58
-18 -362 -14 -451 6 -94 20 -117 33 -169 85 -38 40 -40 45 -40 106 0 36 5 68
10 71 6 3 10 13 10 22 0 8 6 29 14 46 36 83 55 137 65 187 7 30 22 65 34 78
20 21 22 35 24 135 0 62 4 205 7 318 5 196 4 207 -14 224 -11 10 -20 31 -20
47 0 15 -4 36 -10 46 -5 9 -14 29 -20 45 -6 17 -17 27 -29 27 -27 0 -51 37
-51 77 0 19 -7 39 -17 48 -10 9 -34 29 -54 45 -20 16 -39 42 -42 58 -4 18 -19
37 -44 52 -25 17 -39 34 -41 51 -2 20 -12 29 -42 39 -21 7 -48 26 -59 41 -18
24 -29 29 -66 29 -35 0 -47 5 -65 27 -18 24 -30 28 -88 31 -37 2 -72 8 -79 14
-7 5 -13 5 -17 0z"/>
</g>
</svg>
