<?xml version="1.0" standalone="no"?>
<!DOCTYPE svg PUBLIC "-//W3C//DTD SVG 20010904//EN"
 "http://www.w3.org/TR/2001/REC-SVG-20010904/DTD/svg10.dtd">
<svg version="1.0" xmlns="http://www.w3.org/2000/svg"
 width="720.000000pt" height="360.000000pt" viewBox="0 0 720.000000 360.000000"
 preserveAspectRatio="xMidYMid meet">
<metadata>
Created by potrace 1.11, written by Peter Selinger 2001-2013
</metadata>
<g transform="translate(0.000000,360.000000) scale(0.070175,-0.045000)"
fill="#000000" stroke="none">
<path fill="#000000" stroke="none" d="M7817 7980 c-3 -11 -14 -20 -24 -20
-24 0 -117 -46 -133 -65 -7 -8 -18 -15 -25 -15 -6 0 -20 -9 -30 -20 -10 -11
-23 -20 -29 -20 -15 0 -136 -122 -136 -136 0 -6 -9 -19 -20 -29 -11 -10 -20
-24 -20 -30 0 -7 -6 -18 -14 -25 -17 -13 -106 -189 -106 -207 0 -7 -9 -28 -20
-48 -11 -20 -20 -42 -20 -49 0 -8 -13 -40 -30 -71 -16 -31 -30 -62 -30 -69 0
-15 -264 -542 -282 -564 -8 -9 -22 -34 -32 -54 -9 -20 -21 -40 -26 -43 -6 -3
-19 -25 -30 -49 -10 -23 -26 -49 -35 -56 -8 -7 -15 -18 -15 -24 0 -7 -13 -25
-30 -41 -16 -16 -30 -34 -30 -40 0 -7 -9 -20 -20 -30 -11 -10 -20 -23 -20 -30
0 -7 -9 -20 -20 -30 -11 -10 -20 -23 -20 -30 0 -6 -13 -24 -30 -40 -16 -16
-30 -34 -30 -40 0 -7 -9 -20 -20 -30 -11 -10 -20 -23 -20 -30 0 -6 -13 -24
-30 -40 -16 -16 -30 -34 -30 -40 0 -6 -13 -24 -30 -40 -16 -16 -30 -34 -30
-40 0 -6 -22 -33 -50 -60 -27 -27 -50 -54 -50 -60 0 -6 -49 -60 -110 -120 -60
-60 -110 -114 -110 -120 0 -6 -54 -64 -120 -130 -66 -66 -120 -124 -120 -130
0 -6 -34 -44 -75 -85 -97 -96 -105 -113 -105 -215 0 -99 -14 -132 -67 -156
-21 -10 -58 -38 -83 -63 -24 -25 -49 -46 -55 -46 -6 0 -73 -63 -150 -140 -119
-119 -144 -140 -170 -140 -24 0 -42 -12 -80 -50 -31 -31 -58 -50 -72 -50 -17
0 -23 -6 -23 -23 0 -15 -24 -47 -70 -92 -38 -38 -70 -74 -70 -80 0 -6 -45 -55
-100 -110 -55 -55 -100 -104 -100 -110 0 -6 -21 -31 -46 -55 -25 -25 -50 -55
-55 -67 -6 -18 -17 -23 -43 -23 -18 0 -39 6 -45 14 -15 18 -1231 626 -1252
626 -9 0 -24 9 -34 20 -10 11 -26 20 -35 20 -9 0 -88 36 -175 80 -87 44 -164
80 -170 80 -6 0 -65 27 -130 60 -65 33 -124 60 -131 60 -6 0 -38 14 -69 30
-31 17 -63 30 -69 30 -7 0 -57 22 -111 50 -54 28 -104 50 -111 50 -6 0 -38 14
-69 30 -31 17 -63 30 -71 30 -7 0 -29 9 -49 20 -20 11 -44 20 -54 20 -10 0
-26 9 -36 20 -10 11 -26 20 -36 20 -9 0 -43 14 -74 30 -31 17 -63 30 -71 30
-7 0 -29 9 -49 20 -20 11 -42 20 -50 20 -8 0 -30 9 -50 20 -20 11 -42 20 -49
20 -7 0 -48 18 -91 40 -43 22 -86 40 -96 40 -10 0 -21 5 -24 10 -3 6 -14 10
-25 10 -10 0 -44 14 -75 30 -31 17 -63 30 -71 30 -7 0 -29 9 -49 20 -20 11
-42 20 -50 20 -8 0 -30 9 -50 20 -20 11 -42 20 -50 20 -8 0 -30 9 -50 20 -20
11 -42 20 -50 20 -8 0 -30 9 -50 20 -20 11 -42 20 -50 20 -8 0 -30 9 -50 20
-20 11 -44 20 -55 20 -10 0 -22 5 -25 10 -3 6 -17 10 -30 10 -13 0 -27 5 -30
10 -8 13 -227 13 -241 1 -5 -5 -20 -11 -34 -13 -17 -2 -32 -17 -51 -53 -25
-47 -27 -59 -28 -181 l-1 -130 33 -32 c18 -18 38 -32 43 -32 6 0 19 -9 29 -20
10 -11 23 -20 30 -20 6 0 24 -13 40 -30 16 -16 34 -30 40 -30 7 0 20 -9 30
-20 10 -11 24 -20 30 -20 7 0 18 -7 25 -15 7 -9 32 -25 55 -35 23 -10 48 -26
55 -35 7 -8 18 -15 25 -15 6 0 20 -9 30 -20 10 -11 24 -20 30 -20 7 0 18 -7
25 -15 7 -9 32 -25 55 -35 23 -10 48 -26 55 -35 7 -8 18 -15 25 -15 6 0 20 -9
30 -20 10 -11 23 -20 30 -20 7 0 20 -9 30 -20 10 -11 24 -20 30 -20 7 0 18 -7
25 -15 7 -9 32 -25 55 -35 23 -10 48 -26 55 -35 7 -8 18 -15 25 -15 6 0 20 -9
30 -20 10 -11 23 -20 30 -20 7 0 20 -9 30 -20 10 -11 24 -20 30 -20 7 0 18 -7
25 -15 7 -9 32 -25 55 -35 23 -10 48 -26 55 -35 7 -8 18 -15 25 -15 6 0 20 -9
30 -20 10 -11 24 -20 30 -20 7 0 18 -7 25 -15 7 -9 32 -25 55 -35 23 -10 48
-26 55 -35 7 -8 18 -15 25 -15 6 0 20 -9 30 -20 10 -11 24 -20 30 -20 7 0 18
-7 25 -15 7 -9 32 -25 55 -35 23 -10 48 -26 55 -35 7 -8 18 -15 25 -15 7 0 18
-7 25 -15 7 -9 32 -25 55 -35 23 -10 48 -26 55 -35 7 -8 18 -15 25 -15 7 0 18
-7 25 -15 7 -9 32 -25 55 -35 23 -10 48 -26 55 -35 7 -8 18 -15 25 -15 7 0 18
-7 25 -15 7 -9 32 -25 55 -35 23 -10 48 -26 55 -35 7 -8 18 -15 25 -15 7 0 18
-7 25 -15 7 -9 32 -25 55 -35 23 -10 48 -26 55 -35 7 -8 18 -15 25 -15 6 0 20
-9 30 -20 10 -11 24 -20 30 -20 7 0 18 -7 25 -15 7 -9 32 -25 55 -35 23 -10
48 -26 55 -35 7 -8 18 -15 25 -15 6 0 20 -9 30 -20 10 -11 23 -20 30 -20 7 0
20 -9 30 -20 10 -11 23 -20 30 -20 7 0 20 -9 30 -20 10 -11 23 -20 30 -20 21
0 47 -37 43 -62 -2 -18 -10 -24 -38 -26 -19 -2 -39 -8 -45 -13 -5 -5 -33 -9
-61 -9 -29 0 -56 -4 -59 -10 -3 -6 -26 -10 -50 -10 -24 0 -47 -4 -50 -10 -3
-5 -26 -10 -50 -10 -24 0 -47 -4 -50 -10 -3 -5 -30 -10 -60 -10 -30 0 -57 -4
-60 -10 -3 -5 -26 -10 -50 -10 -24 0 -47 -4 -50 -10 -3 -5 -26 -10 -50 -10
-24 0 -47 -4 -50 -10 -3 -5 -30 -10 -60 -10 -30 0 -57 -5 -60 -10 -3 -5 -26
-10 -50 -10 -24 0 -47 -4 -50 -10 -3 -5 -26 -10 -50 -10 -24 0 -47 -4 -50 -10
-3 -5 -26 -10 -50 -10 -24 0 -47 -4 -50 -10 -3 -5 -26 -10 -50 -10 -24 0 -47
-5 -50 -10 -3 -5 -26 -10 -50 -10 -24 0 -47 -4 -50 -10 -3 -5 -21 -10 -40 -10
-19 0 -37 -5 -40 -10 -3 -5 -26 -10 -50 -10 -24 0 -47 -4 -50 -10 -3 -6 -26
-10 -50 -10 -24 0 -47 -5 -50 -10 -3 -5 -21 -10 -40 -10 -19 0 -37 -4 -40 -10
-3 -5 -26 -10 -50 -10 -24 0 -47 -4 -50 -10 -3 -5 -21 -10 -40 -10 -19 0 -37
-4 -40 -10 -3 -6 -26 -10 -50 -10 -24 0 -47 -4 -50 -10 -3 -6 -21 -10 -40 -10
-19 0 -37 -5 -40 -10 -3 -5 -21 -10 -40 -10 -19 0 -37 -4 -40 -10 -3 -5 -21
-10 -40 -10 -19 0 -37 -5 -40 -10 -3 -6 -26 -10 -50 -10 -24 0 -47 -4 -50 -10
-3 -5 -21 -10 -40 -10 -19 0 -37 -4 -40 -10 -3 -5 -21 -10 -40 -10 -19 0 -37
-4 -40 -10 -3 -5 -21 -10 -40 -10 -19 0 -37 -4 -40 -10 -3 -5 -26 -10 -50 -10
-24 0 -47 -5 -50 -10 -3 -5 -17 -10 -30 -10 -13 0 -27 -4 -30 -10 -3 -5 -19
-10 -35 -10 -16 0 -45 -9 -65 -20 -20 -11 -44 -20 -55 -20 -19 0 -20 -8 -20
-195 l0 -195 64 0 c36 0 68 -4 71 -10 9 -14 1491 -14 1500 0 4 6 142 10 380
10 238 0 376 4 380 10 4 6 102 10 260 10 158 0 256 4 260 10 4 6 85 10 210 10
125 0 206 4 210 10 4 6 72 10 170 10 98 0 166 4 170 10 4 6 62 10 140 10 78 0
136 4 140 10 4 6 72 10 170 10 98 0 166 4 170 10 10 17 51 11 70 -10 16 -18
31 -20 131 -20 64 0 115 4 119 10 3 6 30 10 60 10 30 0 57 4 60 10 8 13 72 13
80 0 3 -5 21 -10 40 -10 19 0 37 -4 40 -10 3 -5 17 -10 30 -10 13 0 27 -4 30
-10 3 -5 17 -10 30 -10 13 0 27 -4 30 -10 3 -5 16 -10 29 -10 28 0 56 -29 56
-58 0 -17 6 -22 24 -22 14 0 28 -4 31 -10 3 -5 17 -10 30 -10 13 0 27 -4 30
-10 3 -5 17 -10 30 -10 13 0 27 -4 30 -10 3 -5 15 -10 25 -10 11 0 35 -9 55
-20 20 -11 44 -20 55 -20 10 0 22 -4 25 -10 3 -5 14 -10 24 -10 10 0 53 -18
96 -40 43 -22 86 -40 96 -40 10 0 21 -4 24 -10 3 -5 17 -10 29 -10 13 0 29 -7
36 -15 7 -9 29 -23 49 -32 67 -31 71 -38 71 -129 0 -46 4 -86 10 -89 6 -3 10
-16 10 -28 0 -15 77 -99 252 -274 139 -139 258 -253 263 -253 6 0 33 -22 60
-50 27 -27 54 -50 60 -50 6 0 29 -18 50 -40 21 -22 44 -40 50 -40 6 0 29 -18
50 -40 21 -22 44 -40 50 -40 7 0 20 -9 30 -20 10 -11 23 -20 30 -20 6 0 24
-14 40 -30 16 -17 34 -30 40 -30 7 0 20 -9 30 -20 10 -11 23 -20 30 -20 7 0
20 -9 30 -20 10 -11 23 -20 30 -20 7 0 20 -9 30 -20 10 -11 23 -20 30 -20 7 0
20 -9 30 -20 10 -11 24 -20 30 -20 7 0 18 -7 25 -15 7 -9 33 -25 56 -35 24
-11 45 -24 49 -29 3 -5 31 -22 63 -37 31 -15 65 -34 74 -42 22 -18 349 -182
364 -182 7 0 38 -13 69 -30 31 -16 63 -30 70 -30 7 0 39 -14 70 -30 31 -17 65
-30 75 -30 11 0 22 -4 25 -10 3 -5 15 -10 25 -10 11 0 35 -9 55 -20 20 -11 44
-20 55 -20 10 0 22 -4 25 -10 3 -5 17 -10 30 -10 13 0 27 -4 30 -10 3 -5 17
-10 30 -10 13 0 27 -5 30 -10 3 -6 17 -10 30 -10 13 0 27 -5 30 -10 3 -6 17
-10 30 -10 13 0 27 -5 30 -10 3 -6 17 -10 30 -10 13 0 27 -4 30 -10 3 -5 21
-10 40 -10 19 0 37 -5 40 -10 3 -6 21 -10 40 -10 19 0 37 -5 40 -10 3 -6 17
-10 30 -10 13 0 27 -4 30 -10 3 -5 26 -10 51 -10 32 0 44 -4 44 -15 0 -13 62
-15 495 -15 433 0 495 2 495 15 0 9 9 15 24 15 14 0 28 5 31 10 3 6 14 10 24
10 23 0 75 26 91 45 7 8 17 15 23 15 15 0 97 81 97 96 0 6 9 19 20 29 11 10
20 23 20 30 0 7 9 20 20 30 11 10 20 26 20 36 0 10 9 34 20 54 11 20 20 44 20
55 0 10 5 22 10 25 6 3 10 17 10 31 0 15 6 24 15 24 13 0 15 52 15 405 0 353
-2 405 -15 405 -8 0 -15 9 -15 20 0 11 -9 35 -20 55 -11 20 -20 44 -20 54 0
10 -7 24 -15 31 -9 7 -24 32 -35 54 -10 23 -30 52 -44 65 -14 14 -26 30 -26
36 0 6 -18 29 -40 50 -22 21 -40 44 -40 49 0 14 -202 216 -215 216 -6 0 -27
16 -46 36 -18 19 -50 43 -69 51 -19 9 -43 23 -52 31 -23 19 -149 82 -165 82
-7 0 -28 9 -48 20 -20 11 -44 20 -55 20 -10 0 -22 5 -25 10 -3 6 -17 10 -30
10 -13 0 -27 5 -30 10 -3 6 -17 10 -30 10 -13 0 -27 5 -30 10 -3 6 -17 10 -30
10 -13 0 -27 5 -30 10 -3 6 -21 10 -40 10 -19 0 -37 5 -40 10 -3 6 -17 10 -30
10 -13 0 -27 5 -30 10 -3 6 -21 10 -40 10 -19 0 -37 5 -40 10 -3 6 -26 10 -50
10 -24 0 -47 5 -50 10 -3 6 -26 10 -50 10 -24 0 -47 5 -50 10 -3 6 -21 10 -40
10 -19 0 -37 5 -40 10 -3 6 -21 10 -40 10 -19 0 -37 5 -40 10 -3 6 -21 10 -40
10 -19 0 -37 5 -40 10 -3 6 -21 10 -40 10 -19 0 -37 5 -40 10 -3 6 -21 10 -40
10 -19 0 -37 5 -40 10 -3 6 -21 10 -40 10 -19 0 -37 5 -40 10 -3 6 -21 10 -40
10 -19 0 -37 5 -40 10 -3 6 -21 10 -40 10 -19 0 -37 5 -40 10 -3 6 -21 10 -40
10 -19 0 -37 5 -40 10 -3 6 -21 10 -40 10 -19 0 -37 5 -40 10 -3 5 -21 10 -40
10 -19 0 -37 5 -40 10 -3 6 -21 10 -40 10 -19 0 -37 5 -40 10 -3 6 -21 10 -40
10 -19 0 -37 5 -40 10 -3 6 -21 10 -40 10 -19 0 -37 5 -40 10 -3 6 -21 10 -40
10 -19 0 -37 5 -40 10 -3 6 -21 10 -40 10 -19 0 -37 5 -40 10 -3 6 -21 10 -40
10 -19 0 -37 4 -40 10 -3 5 -21 10 -40 10 -19 0 -37 5 -40 10 -3 6 -21 10 -40
10 -19 0 -37 4 -40 10 -3 5 -21 10 -40 10 -19 0 -37 5 -40 10 -3 6 -21 10 -40
10 -19 0 -37 5 -40 10 -3 6 -21 10 -40 10 -19 0 -37 5 -40 10 -3 6 -21 10 -40
10 -19 0 -37 5 -40 10 -3 6 -30 10 -60 10 -30 0 -57 5 -60 10 -3 6 -17 10 -30
10 -13 0 -27 5 -30 10 -3 6 -21 10 -40 10 -19 0 -37 5 -40 10 -3 6 -21 10 -40
10 -19 0 -37 5 -40 10 -4 6 -65 10 -150 10 -85 0 -146 4 -150 10 -3 5 -14 10
-24 10 -10 0 -62 22 -116 50 -54 27 -107 50 -118 50 -10 0 -21 8 -23 18 -7 23
-49 42 -95 42 -21 0 -41 5 -44 10 -3 6 -21 10 -39 10 -32 0 -66 25 -66 48 0 8
-18 12 -50 12 -31 0 -63 7 -85 20 -20 11 -42 20 -50 20 -17 0 -50 17 -77 39
-24 19 -23 54 2 76 11 10 20 23 20 30 0 6 18 29 40 50 22 21 40 44 40 50 0 6
18 29 40 50 22 21 40 44 40 50 0 6 36 46 80 90 54 53 80 87 80 103 0 14 8 26
23 31 12 5 60 48 107 95 l85 86 140 0 141 0 29 30 c16 16 34 30 40 30 6 0 46
36 90 80 44 44 84 80 90 80 6 0 42 32 80 70 38 39 74 70 80 70 6 0 42 32 80
70 38 39 74 70 80 70 6 0 24 14 40 30 16 17 34 30 40 30 6 0 29 18 50 40 21
22 44 40 50 40 6 0 24 14 40 30 16 17 34 30 40 30 7 0 20 9 30 20 10 11 23 20
30 20 7 0 20 9 30 20 10 11 23 20 30 20 7 0 20 9 30 20 10 11 23 20 30 20 7 0
20 9 30 20 10 11 23 20 30 20 6 0 24 14 40 30 16 17 34 30 41 30 6 0 17 7 24
15 7 9 33 25 56 35 24 11 45 24 49 29 7 13 64 41 81 41 7 0 29 9 49 20 20 11
44 20 55 20 10 0 22 5 25 10 8 13 152 13 160 0 3 -5 21 -10 40 -10 19 0 37 -4
40 -10 3 -5 17 -10 30 -10 13 0 27 -4 30 -10 3 -5 17 -10 29 -10 13 0 29 -7
36 -15 7 -8 41 -29 75 -45 34 -16 68 -37 75 -45 7 -8 18 -15 25 -15 6 0 20 -9
30 -20 10 -11 23 -20 30 -20 6 0 24 -13 40 -30 l29 -30 145 0 c129 0 150 2
191 22 35 17 51 33 68 68 12 25 22 51 22 57 0 7 9 28 20 48 11 20 20 44 20 55
0 10 5 22 10 25 6 3 10 17 10 30 0 13 5 27 10 30 6 3 10 17 10 30 0 13 5 27
10 30 6 3 10 21 10 40 0 19 5 37 10 40 6 3 10 17 10 30 0 13 5 27 10 30 6 3
10 21 10 40 0 19 5 37 10 40 6 3 10 21 10 40 0 19 5 37 10 40 6 3 10 21 10 40
0 19 5 37 10 40 6 3 10 26 10 50 0 24 5 47 10 50 6 3 10 30 10 60 0 30 5 57
10 60 6 3 10 30 10 60 0 30 5 57 10 60 6 3 10 30 10 60 0 30 5 57 10 60 6 3
10 39 10 80 0 41 5 77 10 80 6 4 10 145 10 390 0 245 -4 386 -10 390 -5 3 -10
26 -10 50 0 24 -4 47 -10 50 -5 3 -10 21 -10 40 0 19 -4 37 -10 40 -5 3 -10
17 -10 30 0 13 -4 27 -10 30 -5 3 -10 17 -10 30 0 13 -4 27 -10 30 -5 3 -10
15 -10 25 0 11 -9 35 -20 55 -11 20 -20 41 -20 48 0 18 -89 194 -106 207 -8 7
-14 18 -14 24 0 7 -13 25 -30 41 -16 16 -30 34 -30 40 0 14 -122 135 -136 135
-6 0 -21 12 -35 26 -13 14 -42 34 -65 44 -22 11 -47 26 -54 35 -7 8 -24 15
-37 15 -16 0 -27 7 -30 20 -5 19 -14 20 -338 20 -324 0 -333 -1 -338 -20z"/>
</g>
</svg>
